<svg width="100" height="100" viewBox="0 0 100 100" fill="none" xmlns="http://www.w3.org/2000/svg">
  <path d="M50 50C45.4166 50 41.6666 46.25 41.6666 41.6666C41.6666 37.0833 45.4166 33.3333 50 33.3333C54.5833 33.3333 58.3333 37.0833 58.3333 41.6666C58.3333 46.25 54.5833 50 50 50ZM75 42.5C75 27.375 63.9583 16.6666 50 16.6666C36.0416 16.6666 25 27.375 25 42.5C25 52.25 33.125 65.1667 50 80.5833C66.875 65.1667 75 52.25 75 42.5ZM50 8.33331C67.5 8.33331 83.3333 21.75 83.3333 42.5C83.3333 56.3333 72.2083 72.7083 50 91.6667C27.7916 72.7083 16.6666 56.3333 16.6666 42.5C16.6666 21.75 32.5 8.33331 50 8.33331Z" fill="#0D9D57"/>
</svg>
